HIERARCHY
ROOT Hips
{
	OFFSET 0.000000 71.427986 0.000000
	CHANNELS 6 Xposition Yposition Zposition Xrotation Yrotation Zrotation
	JOINT Pelvis
	{
		OFFSET 0.000000 0.000000 0.000000
		CHANNELS 3 Xrotation Yrotation Zrotation
		JOINT LeftUpLeg
		{
			OFFSET 6.797100 -2.508499 -1.318700
			CHANNELS 3 Xrotation Yrotation Zrotation
			JOINT LeftLeg
			{
				OFFSET 0.069008 -29.241863 0.690200
				CHANNELS 3 Xrotation Yrotation Zrotation
				JOINT LeftFoot
				{
					OFFSET -0.069008 -29.568123 -0.266800
					CHANNELS 3 Xrotation Yrotation Zrotation
					JOINT LeftToeBase
					{
						OFFSET 3.145500 -8.631000 16.059900
						CHANNELS 3 Xrotation Yrotation Zrotation
						End Site
						{
							OFFSET 0.000000 18.501587 0.000000
						}
					}
				}
			}
			JOINT Left_ShortSleeve
			{
				OFFSET 0.265923 -10.480953 1.153800
				CHANNELS 3 Xrotation Yrotation Zrotation
				End Site
				{
					OFFSET 1.725763 19.823879 0.000000
				}
			}
		}
		JOINT RightUpLeg
		{
			OFFSET -6.797100 -2.508499 -1.318700
			CHANNELS 3 Xrotation Yrotation Zrotation
			JOINT RightLeg
			{
				OFFSET -0.082453 -29.241932 0.688000
				CHANNELS 3 Xrotation Yrotation Zrotation
				JOINT RightFoot
				{
					OFFSET 0.082453 -29.568058 -0.264600
					CHANNELS 3 Xrotation Yrotation Zrotation
					JOINT RightToeBase
					{
						OFFSET -3.115300 -8.682800 16.113400
						CHANNELS 3 Xrotation Yrotation Zrotation
						End Site
						{
							OFFSET 0.000000 18.567114 0.000000
						}
					}
				}
			}
			JOINT Right_ShortSleeve
			{
				OFFSET -0.265923 -10.480953 1.153800
				CHANNELS 3 Xrotation Yrotation Zrotation
				End Site
				{
					OFFSET -1.725766 19.823910 0.000000
				}
			}
		}
	}
	JOINT Spine
	{
		OFFSET 0.000000 13.368103 0.470500
		CHANNELS 3 Xrotation Yrotation Zrotation
		JOINT Spine1
		{
			OFFSET 0.147000 13.837402 0.538800
			CHANNELS 3 Xrotation Yrotation Zrotation
			JOINT Spine2
			{
				OFFSET 0.168000 16.242897 -1.435500
				CHANNELS 3 Xrotation Yrotation Zrotation
				JOINT Neck
				{
					OFFSET 0.217200 18.631500 -1.679100
					CHANNELS 3 Xrotation Yrotation Zrotation
					JOINT Head
					{
						OFFSET 0.000000 6.599396 1.385900
						CHANNELS 3 Xrotation Yrotation Zrotation
						JOINT Hat
						{
							OFFSET -0.532200 27.220596 -10.096100
							CHANNELS 3 Xrotation Yrotation Zrotation
							End Site
							{
								OFFSET 0.000000 22.029861 0.000000
							}
						}
						JOINT HairD
						{
							OFFSET -10.777400 17.437393 -1.325900
							CHANNELS 3 Xrotation Yrotation Zrotation
							JOINT HairD1
							{
								OFFSET -3.290299 -11.051193 1.062200
								CHANNELS 3 Xrotation Yrotation Zrotation
								End Site
								{
									OFFSET 0.000000 11.579437 0.000000
								}
							}
						}
						JOINT HairB
						{
							OFFSET -10.777400 17.437393 1.467900
							CHANNELS 3 Xrotation Yrotation Zrotation
							JOINT HairB1
							{
								OFFSET -1.561200 -12.956299 3.590200
								CHANNELS 3 Xrotation Yrotation Zrotation
								End Site
								{
									OFFSET 0.000000 13.534866 0.000000
								}
							}
						}
						JOINT HairA
						{
							OFFSET 9.713100 17.437393 1.467900
							CHANNELS 3 Xrotation Yrotation Zrotation
							JOINT HairA1
							{
								OFFSET 1.561200 -12.956299 3.590200
								CHANNELS 3 Xrotation Yrotation Zrotation
								End Site
								{
									OFFSET 0.000000 13.534866 0.000000
								}
							}
						}
						JOINT HairC
						{
							OFFSET 9.713100 17.437393 -1.325900
							CHANNELS 3 Xrotation Yrotation Zrotation
							JOINT HairC1
							{
								OFFSET 3.290300 -11.051193 1.062200
								CHANNELS 3 Xrotation Yrotation Zrotation
								End Site
								{
									OFFSET 0.000000 11.579437 0.000000
								}
							}
						}
					}
				}
				JOINT LeftShoulder
				{
					OFFSET 5.101800 15.108002 -2.763700
					CHANNELS 3 Xrotation Yrotation Zrotation
					JOINT LeftArm
					{
						OFFSET 9.825497 2.506317 -1.597400
						CHANNELS 3 Xrotation Yrotation Zrotation
						JOINT LeftForeArm
						{
							OFFSET 21.966244 0.000000 0.000000
							CHANNELS 3 Xrotation Yrotation Zrotation
							JOINT LeftHand
							{
								OFFSET 33.879036 0.000000 0.000000
								CHANNELS 3 Xrotation Yrotation Zrotation
								JOINT LeftHandThumb1
								{
									OFFSET 6.715286 -2.359680 3.363841
									CHANNELS 3 Xrotation Yrotation Zrotation
									JOINT LeftHandThumb2
									{
										OFFSET 2.507072 -1.447464 1.447461
										CHANNELS 3 Xrotation Yrotation Zrotation
										JOINT LeftHandThumb3
										{
											OFFSET 2.898338 -1.673355 1.673357
											CHANNELS 3 Xrotation Yrotation Zrotation
											End Site
											{
												OFFSET -0.295959 3.727692 -0.131651
											}
										}
									}
								}
								JOINT LeftHandIndex1
								{
									OFFSET 14.190811 -0.254547 3.840278
									CHANNELS 3 Xrotation Yrotation Zrotation
									JOINT LeftHandIndex2
									{
										OFFSET 3.551727 0.000000 -0.000000
										CHANNELS 3 Xrotation Yrotation Zrotation
										JOINT LeftHandIndex3
										{
											OFFSET 2.894196 0.000000 0.000000
											CHANNELS 3 Xrotation Yrotation Zrotation
											End Site
											{
												OFFSET -1.000603 2.690872 0.366626
											}
										}
									}
								}
								JOINT LeftHandMiddle1
								{
									OFFSET 13.776489 0.000000 0.000000
									CHANNELS 3 Xrotation Yrotation Zrotation
									JOINT LeftHandMiddle2
									{
										OFFSET 3.438232 0.000000 0.000000
										CHANNELS 3 Xrotation Yrotation Zrotation
										JOINT LeftHandMiddle3
										{
											OFFSET 3.691551 0.000000 0.000000
											CHANNELS 3 Xrotation Yrotation Zrotation
											End Site
											{
												OFFSET -1.082298 3.499527 0.457670
											}
										}
									}
								}
								JOINT LeftHandRing1
								{
									OFFSET 13.966164 -0.268127 -3.067488
									CHANNELS 3 Xrotation Yrotation Zrotation
									JOINT LeftHandRing2
									{
										OFFSET 3.162567 0.000000 0.000000
										CHANNELS 3 Xrotation Yrotation Zrotation
										JOINT LeftHandRing3
										{
											OFFSET 3.324348 0.000000 0.000000
											CHANNELS 3 Xrotation Yrotation Zrotation
											End Site
											{
												OFFSET -0.861900 3.184998 0.405154
											}
										}
									}
								}
								JOINT LeftHandPinky1
								{
									OFFSET 13.131393 -0.168503 -5.746925
									CHANNELS 3 Xrotation Yrotation Zrotation
									JOINT LeftHandPinky2
									{
										OFFSET 2.849182 0.000000 0.000000
										CHANNELS 3 Xrotation Yrotation Zrotation
										JOINT LeftHandPinky3
										{
											OFFSET 2.805038 0.000000 0.000000
											CHANNELS 3 Xrotation Yrotation Zrotation
											End Site
											{
												OFFSET -0.882500 2.642609 0.325652
											}
										}
									}
								}
							}
							JOINT Left_Sleeve
							{
								OFFSET 6.592125 -0.646545 0.805568
								CHANNELS 3 Xrotation Yrotation Zrotation
								End Site
								{
									OFFSET -0.000179 20.275787 -0.000000
								}
							}
						}
					}
				}
				JOINT RightShoulder
				{
					OFFSET -5.731700 15.108002 -2.763700
					CHANNELS 3 Xrotation Yrotation Zrotation
					JOINT RightArm
					{
						OFFSET -9.825497 2.506317 -1.597400
						CHANNELS 3 Xrotation Yrotation Zrotation
						JOINT RightForeArm
						{
							OFFSET -21.966242 0.000000 0.000000
							CHANNELS 3 Xrotation Yrotation Zrotation
							JOINT RightHand
							{
								OFFSET -33.879032 0.000000 0.000000
								CHANNELS 3 Xrotation Yrotation Zrotation
								JOINT RightHandThumb1
								{
									OFFSET -6.715286 -2.359680 3.363841
									CHANNELS 3 Xrotation Yrotation Zrotation
									JOINT RightHandThumb2
									{
										OFFSET -2.507072 -1.447464 1.447461
										CHANNELS 3 Xrotation Yrotation Zrotation
										JOINT RightHandThumb3
										{
											OFFSET -2.898338 -1.673355 1.673357
											CHANNELS 3 Xrotation Yrotation Zrotation
											End Site
											{
												OFFSET 0.295959 3.727692 -0.131651
											}
										}
									}
								}
								JOINT RightHandIndex1
								{
									OFFSET -14.190811 -0.254547 3.840278
									CHANNELS 3 Xrotation Yrotation Zrotation
									JOINT RightHandIndex2
									{
										OFFSET -3.551727 0.000000 -0.000000
										CHANNELS 3 Xrotation Yrotation Zrotation
										JOINT RightHandIndex3
										{
											OFFSET -2.894196 0.000000 0.000000
											CHANNELS 3 Xrotation Yrotation Zrotation
											End Site
											{
												OFFSET 1.000603 2.690872 0.366626
											}
										}
									}
								}
								JOINT RightHandMiddle1
								{
									OFFSET -13.776489 0.000000 0.000000
									CHANNELS 3 Xrotation Yrotation Zrotation
									JOINT RightHandMiddle2
									{
										OFFSET -3.438232 0.000000 0.000000
										CHANNELS 3 Xrotation Yrotation Zrotation
										JOINT RightHandMiddle3
										{
											OFFSET -3.691551 0.000000 0.000000
											CHANNELS 3 Xrotation Yrotation Zrotation
											End Site
											{
												OFFSET 1.082298 3.499527 0.457670
											}
										}
									}
								}
								JOINT RightHandRing1
								{
									OFFSET -13.966164 -0.268127 -3.067488
									CHANNELS 3 Xrotation Yrotation Zrotation
									JOINT RightHandRing2
									{
										OFFSET -3.162567 0.000000 0.000000
										CHANNELS 3 Xrotation Yrotation Zrotation
										JOINT RightHandRing3
										{
											OFFSET -3.324348 0.000000 0.000000
											CHANNELS 3 Xrotation Yrotation Zrotation
											End Site
											{
												OFFSET 0.861900 3.184998 0.405154
											}
										}
									}
								}
								JOINT RightHandPinky1
								{
									OFFSET -13.131393 -0.168503 -5.746925
									CHANNELS 3 Xrotation Yrotation Zrotation
									JOINT RightHandPinky2
									{
										OFFSET -2.849182 0.000000 0.000000
										CHANNELS 3 Xrotation Yrotation Zrotation
										JOINT RightHandPinky3
										{
											OFFSET -2.805038 0.000000 0.000000
											CHANNELS 3 Xrotation Yrotation Zrotation
											End Site
											{
												OFFSET 0.882500 2.642609 0.325652
											}
										}
									}
								}
							}
							JOINT Right_Sleeve
							{
								OFFSET -6.592125 -0.646545 0.805568
								CHANNELS 3 Xrotation Yrotation Zrotation
								End Site
								{
									OFFSET 0.000179 20.275787 -0.000000
								}
							}
						}
					}
				}
				JOINT Bind_Right_JacketString
				{
					OFFSET -3.534800 11.969597 7.200700
					CHANNELS 3 Xrotation Yrotation Zrotation
					JOINT Bind_Right_JacketString1
					{
						OFFSET -0.319900 -6.102600 2.794100
						CHANNELS 3 Xrotation Yrotation Zrotation
						End Site
						{
							OFFSET 0.000000 6.719452 0.000000
						}
					}
				}
				JOINT Bind_Left_JacketString
				{
					OFFSET 2.904800 11.969597 7.200700
					CHANNELS 3 Xrotation Yrotation Zrotation
					JOINT Bind_Left_JacketString1
					{
						OFFSET 0.364800 -5.904503 3.186800
						CHANNELS 3 Xrotation Yrotation Zrotation
						End Site
						{
							OFFSET 0.000000 6.719513 0.000000
						}
					}
				}
				JOINT HairE
				{
					OFFSET 5.915200 17.612701 -11.592200
					CHANNELS 3 Xrotation Yrotation Zrotation
					JOINT HairE1
					{
						OFFSET 0.289200 -7.171898 -1.284500
						CHANNELS 3 Xrotation Yrotation Zrotation
						End Site
						{
							OFFSET 0.000000 7.291756 0.000000
						}
					}
				}
				JOINT HairF
				{
					OFFSET -0.864800 17.612701 -11.592200
					CHANNELS 3 Xrotation Yrotation Zrotation
					JOINT HairF1
					{
						OFFSET 0.000000 -14.087097 -2.127501
						CHANNELS 3 Xrotation Yrotation Zrotation
						End Site
						{
							OFFSET 0.000000 14.246841 0.000000
						}
					}
				}
				JOINT HairG
				{
					OFFSET -8.087700 17.612701 -11.592200
					CHANNELS 3 Xrotation Yrotation Zrotation
					JOINT HairG1
					{
						OFFSET -0.293600 -6.081398 -0.910100
						CHANNELS 3 Xrotation Yrotation Zrotation
						End Site
						{
							OFFSET 0.000000 6.156120 0.000000
						}
					}
				}
			}
		}
	}
	JOINT Pouch
	{
		OFFSET 0.000000 4.394501 10.847300
		CHANNELS 3 Xrotation Yrotation Zrotation
		End Site
		{
			OFFSET 0.000000 21.880577 0.000000
		}
	}
	JOINT Bag
	{
		OFFSET -13.229000 4.813004 -0.593300
		CHANNELS 3 Xrotation Yrotation Zrotation
		End Site
		{
			OFFSET 0.000000 21.880577 0.000000
		}
	}
	JOINT OccupyGuyFacialAnim_Joint
	{
		OFFSET 1.000000 -70.206398 -1.655000
		CHANNELS 3 Xrotation Yrotation Zrotation
		End Site
		{
			OFFSET 0.000000 21.880577 0.000000
		}
	}
}
MOTION
Frames: 4
Frame Time: 0.033333
-9.074257 62.385254 -51.851730 -191.983080 35.651596 169.106400 -0.000000 0.000002 -0.000001 18.128321 -10.250552 -4.963117 17.072092 -2.664481 -0.630038 -13.936050 -5.757592 32.627848 0.000001 -0.000000 -0.000001 -0.000002 -0.000001 -0.000003 -64.994769 -5.850135 -5.274235 100.257560 4.339125 3.073605 -16.388337 9.984909 26.951740 -0.000002 -0.000001 -0.000001 0.000001 0.000000 0.000001 3.742845 -4.374114 1.626617 7.619582 -8.589082 3.363097 7.619571 -8.589071 3.363097 -32.760494 26.261480 14.266589 8.171730 10.498781 -3.346106 -0.000000 -0.000000 -0.000000 -0.000000 -0.000000 -0.000000 -0.000000 -0.000000 -0.000000 -0.000000 -0.000000 -0.000000 -0.000001 -0.000000 -0.000001 -0.000000 -0.000000 -0.000000 -0.000001 -0.000000 -0.000001 -0.000000 -0.000000 -0.000000 -0.000000 -0.000000 -0.000000 0.583673 -6.155857 2.772541 35.376753 -63.948234 42.895395 0.017629 -25.862071 0.026405 3.975767 -8.216081 30.906572 11.779686 -12.477519 -12.031392 -0.937623 0.076426 2.185648 0.000001 -0.000000 0.000000 6.675768 -11.367826 -3.882826 0.321064 0.606135 -4.920352 0.000004 0.000000 -0.000000 1.523212 7.699678 -2.117677 -0.093666 -0.331719 -10.247486 -0.000000 -0.000000 -0.000001 1.677558 15.879447 -7.283282 0.294357 -2.139853 -15.871693 -0.000001 0.000001 -0.000002 -3.163448 32.049177 -7.648686 0.181121 -4.661996 -14.964449 0.000000 -0.000001 0.000001 0.000000 -0.000001 0.000001 -2.190850 5.014252 6.960780 -0.724633 -1.687010 36.062186 -0.046258 50.062684 -0.063586 2.390527 8.013401 -24.891532 10.538005 15.984608 -13.206025 1.399870 -5.335623 -2.243010 -0.000000 0.000000 0.000001 -0.166067 10.803797 10.778225 0.145676 -1.172190 18.416693 -0.000001 -0.000001 -0.000005 -5.218423 8.140718 27.467876 -4.011211 3.018914 97.694334 -0.000001 -0.000000 -0.000001 -10.029054 5.320142 34.782165 -5.914493 6.648691 87.715550 0.000000 0.000000 -0.000002 -0.959777 2.874698 41.410621 -0.006233 11.054186 42.788980 -0.000001 0.000003 -0.000001 0.000000 0.000001 -0.000002 0.000001 0.000001 0.000000 0.000001 0.000002 -0.000002 0.000001 0.000001 0.000001 0.000001 0.000001 0.000001 0.000001 0.000001 0.000000 0.000001 0.000002 -0.000002 0.000001 0.000001 0.000001 0.000001 0.000001 0.000001 0.000001 0.000001 0.000000 0.000001 0.000002 -0.000002 -0.000000 0.000002 -0.000001 -0.000000 0.000002 -0.000001 -0.000000 0.000002 -0.000001 
-8.607066 64.386971 -57.781521 -192.102007 33.499435 170.771532 -0.000001 0.000001 -0.000002 8.340146 -5.284898 -6.848247 35.994960 -4.547196 -1.378157 -4.116386 -6.237203 23.366014 -0.000001 -0.000001 -0.000003 0.000003 0.000001 -0.000000 -59.101620 -11.525689 -2.575313 84.902578 3.746111 2.790690 -11.044006 12.512876 29.206326 0.000001 -0.000003 0.000002 0.000001 -0.000002 -0.000003 3.754135 -4.620180 1.291998 7.619853 -9.172036 2.654905 7.619845 -9.172030 2.654898 -34.783514 26.021276 14.381103 7.484073 10.984166 -3.771954 -0.000001 0.000000 -0.000000 -0.000001 0.000000 -0.000000 -0.000001 0.000000 0.000000 -0.000001 0.000000 -0.000000 -0.000001 0.000000 -0.000001 -0.000001 0.000000 -0.000000 -0.000001 0.000000 -0.000001 -0.000001 0.000000 -0.000000 -0.000001 0.000000 -0.000000 -0.753262 -7.951693 -6.462204 46.077470 -56.244986 37.725242 0.015034 -23.594885 0.016098 -4.097332 -8.679953 26.310503 16.751367 -10.467331 -13.840466 -0.939133 0.077775 2.182279 -0.000000 -0.000001 0.000001 5.622112 -10.148345 -9.279612 0.317504 0.606713 -4.990513 0.000001 0.000000 -0.000000 1.810121 8.300626 -6.459535 -0.096851 -0.352057 -10.499338 -0.000001 0.000001 0.000001 2.583259 16.783303 -11.017674 0.262548 -2.196737 -16.467822 -0.000002 -0.000001 -0.000003 -1.186992 33.533384 -11.998995 0.180996 -4.661946 -14.964456 0.000002 -0.000001 0.000001 -0.000002 0.000000 0.000001 -3.127276 7.788299 12.197043 1.400539 -0.178428 42.281152 -0.040348 52.831455 -0.053738 4.548532 7.371747 -17.870486 12.635197 13.634614 -13.128725 1.215006 -4.888070 -2.200464 0.000000 -0.000001 0.000000 -0.395801 10.574716 12.004282 0.144103 -1.167455 18.286025 0.000001 -0.000000 0.000002 -5.564896 8.431190 28.501203 -4.010045 3.019031 97.642499 0.000002 -0.000002 0.000001 -10.488549 5.754060 35.513203 -5.918174 6.648934 87.751094 0.000004 0.000001 -0.000003 -1.124428 2.904558 42.676385 0.019424 11.033202 42.667881 -0.000001 0.000001 -0.000001 0.000001 0.000000 -0.000002 0.000001 -0.000001 -0.000000 0.000002 0.000003 -0.000001 0.000001 -0.000001 -0.000000 0.000001 -0.000001 -0.000000 0.000001 -0.000001 -0.000000 0.000002 0.000003 -0.000001 0.000001 -0.000001 -0.000000 0.000001 -0.000001 -0.000000 0.000001 -0.000001 -0.000000 0.000002 0.000003 -0.000001 -0.000001 0.000001 -0.000002 -0.000001 0.000001 -0.000002 -0.000001 0.000001 -0.000002 
-7.780472 65.423546 -63.346672 -189.806886 30.947942 172.700199 -0.000000 -0.000001 0.000001 -4.526176 -0.121176 -5.506534 55.059511 -1.050044 -1.976506 16.580841 -4.070994 4.029079 0.000000 0.000001 -0.000000 -0.000001 -0.000003 -0.000003 -47.061243 -12.634063 0.016945 72.241504 2.815604 2.452868 -9.704390 12.908516 25.005401 0.000002 -0.000004 0.000001 -0.000000 0.000000 -0.000003 3.995965 -4.325377 0.780741 8.022147 -8.592992 1.312508 8.022151 -8.592982 1.312502 -34.062522 26.295450 12.240893 4.898788 11.323398 -3.660757 0.000000 -0.000001 0.000001 0.000000 -0.000001 0.000001 0.000000 -0.000001 0.000001 0.000000 -0.000001 0.000001 0.000001 -0.000001 -0.000000 0.000000 -0.000001 0.000001 0.000001 -0.000001 -0.000000 0.000000 -0.000001 0.000001 0.000000 -0.000001 0.000001 -3.245248 -8.614094 -18.949233 38.394706 -50.431381 15.854510 -0.000996 -23.308290 0.009809 -7.079092 -7.480421 23.117025 21.120748 -7.369208 -17.038634 -0.945095 0.083047 2.169197 -0.000001 0.000002 -0.000001 4.819557 -7.744319 -17.065805 0.293771 0.610606 -5.458768 -0.000003 -0.000000 -0.000000 2.649595 10.435451 -12.946866 -0.103419 -0.392198 -10.997070 0.000002 -0.000001 -0.000001 4.344904 18.675310 -16.669179 0.220373 -2.270106 -17.241547 0.000003 0.000002 -0.000004 0.578481 34.531821 -15.585756 0.181149 -4.661989 -14.964454 -0.000001 -0.000002 0.000003 0.000003 0.000002 0.000001 -4.479737 10.357794 18.330295 0.130911 -0.844868 49.458971 -0.040778 57.958595 -0.035586 1.846249 9.947023 -18.370975 18.876153 7.897171 -12.106706 1.253802 -4.981943 -2.209504 -0.000001 0.000001 -0.000000 -0.539917 10.382264 12.843154 0.144067 -1.167346 18.283093 0.000001 0.000002 -0.000001 -5.554648 8.141111 29.286202 -4.007735 3.019264 97.541692 -0.000004 -0.000001 0.000003 -10.683101 5.834286 36.074877 -5.907230 6.648163 87.645076 -0.000001 0.000001 -0.000004 -1.074993 2.755275 43.356699 0.047233 11.010329 42.536475 -0.000000 0.000004 -0.000001 0.000003 -0.000000 0.000001 0.000003 -0.000001 -0.000000 0.000003 -0.000003 0.000001 0.000003 -0.000001 -0.000001 0.000003 -0.000001 -0.000001 0.000003 -0.000001 -0.000000 0.000003 -0.000003 0.000001 0.000003 -0.000001 -0.000001 0.000003 -0.000001 -0.000001 0.000003 -0.000001 -0.000000 0.000003 -0.000003 0.000001 -0.000000 -0.000001 0.000001 -0.000000 -0.000001 0.000001 -0.000000 -0.000001 0.000001 
-6.490878 64.644386 -68.819046 -186.695038 28.942783 173.779055 0.000000 0.000002 0.000000 -15.782238 2.575440 -3.378403 78.656363 -1.902884 -2.652622 18.550995 0.827358 4.356798 -0.000000 0.000000 -0.000002 -0.000001 -0.000002 -0.000001 -33.015236 -9.218579 4.815171 67.344108 0.057531 2.264475 -25.025212 10.235231 10.219132 0.000002 -0.000001 0.000001 -0.000001 -0.000002 -0.000001 4.213927 -3.238972 0.532156 8.359894 -6.268217 -0.102894 8.359895 -6.268231 -0.102891 -30.500770 28.055571 9.918321 1.468562 13.547813 -4.791716 0.000001 0.000000 0.000000 0.000001 0.000000 0.000000 0.000001 0.000000 0.000000 0.000001 0.000000 0.000001 0.000000 0.000000 0.000001 0.000001 0.000000 0.000001 0.000000 0.000000 0.000001 0.000001 0.000000 0.000000 0.000001 0.000000 0.000000 -5.079644 -7.412441 -26.755489 22.703308 -38.739337 -9.977989 -0.027958 -25.838249 0.011036 -11.961896 -6.468139 14.434358 22.015839 -2.535054 -19.340430 -0.948800 0.086318 2.161169 -0.000001 -0.000000 -0.000002 4.706612 -7.204022 -19.525925 0.269562 0.614777 -5.937007 0.000002 -0.000002 -0.000004 2.846549 10.534281 -13.791302 -0.155146 -0.654288 -14.267631 0.000003 -0.000001 0.000000 4.643905 18.723659 -17.693489 0.210073 -2.287701 -17.428230 -0.000001 0.000001 0.000001 1.554638 35.116427 -17.422436 0.190662 -4.663718 -14.963775 -0.000001 -0.000000 0.000001 0.000001 0.000003 -0.000001 -5.811268 12.208526 23.778250 -1.315812 -1.629696 54.680223 -0.053558 67.924251 0.000600 0.401577 9.858535 -24.259550 27.761019 0.642748 -9.449460 1.423545 -5.392997 -2.248351 -0.000001 0.000002 -0.000000 -0.431195 9.473803 13.288684 0.145474 -1.171540 18.398923 -0.000002 0.000001 0.000001 -5.190567 7.453012 29.367484 -4.008177 3.019202 97.561773 0.000001 0.000001 0.000001 -10.622478 5.798025 35.927652 -5.891823 6.647036 87.495277 -0.000001 0.000000 0.000002 -1.017037 2.692224 43.261602 0.162279 10.914625 41.990121 -0.000002 -0.000002 0.000000 -0.000000 0.000002 -0.000002 -0.000000 0.000002 -0.000002 -0.000000 0.000000 -0.000001 -0.000000 0.000002 -0.000001 -0.000000 0.000002 -0.000001 -0.000000 0.000002 -0.000002 -0.000000 0.000000 -0.000001 -0.000000 0.000002 -0.000001 -0.000000 0.000002 -0.000001 -0.000000 0.000002 -0.000002 -0.000000 0.000000 -0.000001 0.000000 0.000002 0.000000 0.000000 0.000002 0.000000 0.000000 0.000002 0.000000 
